<?xml version="1.0" encoding="UTF-8"?>
<svg id="Calque_2" data-name="Calque 2" xmlns="http://www.w3.org/2000/svg" viewBox="0 0 24.38 27.61">
  <defs>
    <style>
      .cls-1 {
        fill: #5f86ff;
      }

      .cls-2 {
        fill: #ffa07a;
      }
    </style>
  </defs>
  <g id="Repères">
    <g>
      <path class="cls-2" d="M10.57,27.47V13.8h3.46c0,1.84,1.45,3.37,3.31,3.44,1.9,.07,3.49-1.41,3.57-3.31,0-.04,0-.09,0-.13h3.46v13.06c0,.41-.33,.74-.74,.74H10.71c-.07,0-.14-.06-.14-.14Z"/>
      <circle class="cls-2" cx="3.44" cy="20.71" r="3.44"/>
      <path class="cls-1" d="M10.96,0h13.42V3.46c-1.84,0-3.37,1.45-3.44,3.31-.07,1.9,1.41,3.49,3.31,3.57,.04,0,.09,0,.13,0v3.46H10.89c-.17,0-.31-.14-.31-.31V.38c0-.21,.17-.38,.38-.38Z"/>
      <circle class="cls-1" cx="17.48" cy="14.06" r="3.44"/>
      <path class="cls-2" d="M3.08,16.67h13.8v6.65c0,.79-.64,1.42-1.42,1.42H3.08v-8.07h0Z" transform="translate(30.68 10.73) rotate(90)"/>
    </g>
  </g>
</svg>